<?xml version="1.0" encoding="UTF-8"?>
<!DOCTYPE svg PUBLIC "-//W3C//DTD SVG 1.1//EN" "http://www.w3.org/Graphics/SVG/1.1/DTD/svg11.dtd">
<!-- Creator: CorelDRAW X8 -->
<svg xmlns="http://www.w3.org/2000/svg" xml:space="preserve" width="63.4998mm" height="30.4798mm" version="1.1" style="shape-rendering:geometricPrecision; text-rendering:geometricPrecision; image-rendering:optimizeQuality; fill-rule:evenodd; clip-rule:evenodd"
viewBox="0 0 6350 3048"
 xmlns:xlink="http://www.w3.org/1999/xlink">
 <defs>
  <style type="text/css">
   <![CDATA[
    .str0 {stroke:#FEFEFE;stroke-width:70.56;stroke-linecap:round;stroke-linejoin:round}
    .fil2 {fill:none}
    .fil0 {fill:#FEFEFE}
    .fil4 {fill:#D2D3D5}
    .fil3 {fill:#ED3237}
    .fil1 {fill:#006CB5}
   ]]>
  </style>
 </defs>
 <g id="Слой_x0020_1">
  <metadata id="CorelCorpID_0Corel-Layer"/>
  <g id="_733681793072">
   <path class="fil0" d="M3343 274c468,0 866,218 1077,594l-93 0c-203,-337 -567,-559 -994,-559 -428,0 -792,221 -994,559l-74 0c212,-376 609,-594 1078,-594zm1063 1851c-218,353 -613,589 -1063,589 -451,0 -846,-236 -1064,-589l89 0c209,303 563,503 965,503 401,0 755,-200 964,-503l109 0z"/>
   <ellipse class="fil1" cx="3327" cy="1485" rx="1195" ry="1176"/>
   <path class="fil1" d="M140 2287l14 -86 2637 0c8,29 17,58 26,86l-2677 0zm6070 -1525l-37 85 -2279 0c-8,-29 -17,-58 -26,-85l2342 0zm-543 1525l-1780 0c6,-22 13,-44 18,-67l1781 0 -19 67zm-4903 -1525l2034 0c-6,21 -12,44 -18,66l-2044 0 28 -66zm-56 142l2635 0 -174 1221 -2998 0 537 -1221zm4998 1240l-2363 0 173 -1220 2633 0 -443 1220z"/>
   <g>
    <path class="fil2 str0" d="M3260 46c-846,96 -1389,659 -1326,1495l440 52c-132,-607 311,-1051 934,-1122 297,-34 580,59 794,235l527 -59c-305,-417 -819,-663 -1369,-601zm-1293 1848c200,902 1078,1171 1628,1109 550,-62 711,-226 947,-492l-329 -275 0 0c-167,185 -399,312 -666,342 -454,51 -874,-192 -1068,-578l-512 -106z"/>
    <path id="1" class="fil1" d="M3260 46c-846,96 -1389,659 -1326,1495l440 52c-132,-607 311,-1051 934,-1122 297,-34 580,59 794,235l527 -59c-305,-417 -819,-663 -1369,-601zm-1293 1848c200,902 1078,1171 1628,1109 550,-62 711,-226 947,-492l-329 -275 0 0c-167,185 -399,312 -666,342 -454,51 -874,-192 -1068,-578l-512 -106z"/>
   </g>
   <g>
    <path class="fil2 str0" d="M4913 1975l-2146 -719c50,94 234,438 284,532l-2260 -274 2818 630 -290 -441 1594 272z"/>
    <path id="1" class="fil3" d="M4913 1975l-2146 -719c50,94 234,438 284,532l-2260 -274 2818 630 -290 -441 1594 272z"/>
   </g>
   <g>
    <path class="fil2 str0" d="M4404 778c-119,7 -238,13 -357,19 -645,-452 -1240,-66 -1449,292 511,-594 1235,-520 1605,83 115,-77 231,-154 346,-232 -48,-54 -97,-108 -145,-162z"/>
    <path id="1" class="fil4" d="M4404 778c-119,7 -238,13 -357,19 -645,-452 -1240,-66 -1449,292 511,-594 1235,-520 1605,83 115,-77 231,-154 346,-232 -48,-54 -97,-108 -145,-162z"/>
   </g>
  </g>
 </g>
</svg>
